<svg id="Logo" xmlns="http://www.w3.org/2000/svg" viewBox="0 0 208.46 208.46"><defs><style>.cls-1{fill:#0e2f3b;stroke:#e6e7e8;stroke-width:5.67px;}.cls-1,.cls-3{stroke-miterlimit:10;}.cls-2{fill:#fff;}.cls-3{fill:none;stroke:#fff;stroke-width:1.13px;}</style></defs><title>Sygnet</title><rect class="cls-1" x="33.36" y="33.37" width="141.73" height="141.73" transform="translate(-43.18 104.23) rotate(-45)"/><path class="cls-2" d="M97.76,60.62h1.68a6.3,6.3,0,0,0,.66,0,2.3,2.3,0,0,0,.51-.11,1.44,1.44,0,0,0,.42-.23,4.83,4.83,0,0,0,.41-.37l11.44-11.76a1.68,1.68,0,0,1,.59-.46,1.8,1.8,0,0,1,.69-.12h1.64L103.43,60.26a5.83,5.83,0,0,1-.67.62,2.67,2.67,0,0,1-.65.36,2.37,2.37,0,0,1,.76.37,4.09,4.09,0,0,1,.68.65l13,13.62h-1.66a1.6,1.6,0,0,1-.75-.13,1.58,1.58,0,0,1-.45-.41l-12-12.26q-.22-.22-.41-.38a1.9,1.9,0,0,0-1-.43,5.15,5.15,0,0,0-.79,0H97.76V75.88H95.7V47.54h2.06Z" transform="translate(0 0)"/><path class="cls-2" d="M157.69,90.09v28.34h-1a.91.91,0,0,1-.43-.09A1,1,0,0,1,156,118l-18.4-24.59q.06.6.06,1.14v23.85h-1.8V90.09h1a1,1,0,0,1,.43.07,1,1,0,0,1,.33.31L156,115q-.06-.6-.06-1.14V90.09Z" transform="translate(0 0)"/><path class="cls-2" d="M124,132.59l-8.91,28.34h-1.84l-8.37-24.59q-.16-.5-.28-1-.12.54-.28,1L96,160.93H94.14l-8.93-28.34h1.7a.7.7,0,0,1,.74.54l7.15,23.29q.22.8.4,1.82.1-.52.2-1a7.58,7.58,0,0,1,.24-.85l8-23.29a.86.86,0,0,1,.28-.38.75.75,0,0,1,.48-.16H105a.7.7,0,0,1,.46.15,1,1,0,0,1,.28.39l8,23.29a7.46,7.46,0,0,1,.25.84q.11.46.21,1l.19-1q.09-.45.19-.85l7.15-23.29a.71.71,0,0,1,.27-.38.79.79,0,0,1,.49-.16Z" transform="translate(0 0)"/><path class="cls-2" d="M73.7,104.24a16.78,16.78,0,0,1-1,5.91A12.76,12.76,0,0,1,70,114.62a12,12,0,0,1-4.28,2.82,14.88,14.88,0,0,1-5.5,1H49.83V90.09H60.18a14.88,14.88,0,0,1,5.5,1A12,12,0,0,1,70,93.89a12.76,12.76,0,0,1,2.76,4.47A16.72,16.72,0,0,1,73.7,104.24Zm-2.12,0A15.83,15.83,0,0,0,70.75,99,11,11,0,0,0,68.43,95a9.92,9.92,0,0,0-3.6-2.44,12.4,12.4,0,0,0-4.65-.84H51.89v25h8.29a12.4,12.4,0,0,0,4.65-.84,9.92,9.92,0,0,0,3.6-2.44,11,11,0,0,0,2.32-3.93A15.89,15.89,0,0,0,71.58,104.24Z" transform="translate(0 0)"/><line class="cls-3" x1="64.14" y1="144.3" x2="144.32" y2="64.12"/><line class="cls-3" x1="144.32" y1="144.3" x2="64.14" y2="64.12"/></svg>