<?xml version="1.0" encoding="utf-8"?>
<!-- Generator: Adobe Illustrator 18.0.0, SVG Export Plug-In . SVG Version: 6.00 Build 0)  -->
<!DOCTYPE svg PUBLIC "-//W3C//DTD SVG 1.1//EN" "http://www.w3.org/Graphics/SVG/1.1/DTD/svg11.dtd">
<svg version="1.1" id="Warstwa_1" xmlns="http://www.w3.org/2000/svg" xmlns:xlink="http://www.w3.org/1999/xlink" x="0px" y="0px"
	 viewBox="0 0 841.9 595.3" enable-background="new 0 0 841.9 595.3" xml:space="preserve">
<g>
	<g>
		<path fill="#3C3C3B" d="M332.6,464.9c0,5.6-4.6,9.3-10.2,9.3h-13.3v-31.6h12.4c5.5,0,10,3.6,10,9c0,2.6-1,4.7-2.8,6.2
			C331.1,459.2,332.6,461.7,332.6,464.9z M316.4,449.3v5.6h5.1c1.6,0,2.8-1.2,2.8-2.8c0-1.6-1.1-2.8-2.8-2.8H316.4z M325.4,464.3
			c0-1.8-1.2-3-3-3h-6v6h6C324.2,467.4,325.4,466.1,325.4,464.3z"/>
		<path fill="#3C3C3B" d="M346.9,463.8h-3.4v10.4h-7.2v-31.6h12.6c6,0,10.8,4.8,10.8,10.8c0,3.9-2.3,7.4-5.8,9.2l6.7,11.6h-7.8
			L346.9,463.8z M343.5,457.4h5.4c2,0,3.6-1.8,3.6-4.1c0-2.3-1.6-4.1-3.6-4.1h-5.4V457.4z"/>
		<path fill="#3C3C3B" d="M382.5,469.2h-11.7l-1.6,5h-7.9l10.7-31.6h9.2l10.7,31.6h-7.9L382.5,469.2z M380.3,462.4l-3.7-11.6
			l-3.7,11.6H380.3z"/>
		<path fill="#3C3C3B" d="M419.5,442.5v31.6h-5.4L401.9,457v17.2h-7.2v-31.6h5.4l12.2,17.2v-17.2H419.5z"/>
		<path fill="#3C3C3B" d="M453,458.3c0,8.9-6.6,15.8-15.3,15.8H425v-31.6h12.6C446.3,442.5,453,449.4,453,458.3z M446,458.3
			c0-5.4-3.4-8.8-8.4-8.8h-5.4v17.7h5.4C442.6,467.2,446,463.8,446,458.3z"/>
		<path fill="#3C3C3B" d="M464.3,442.5v31.6H457v-31.6H464.3z"/>
		<path fill="#3C3C3B" d="M468.3,458.3c0-9.3,6.9-16.4,16.4-16.4c5.7,0,10.8,2.8,13.5,7.3l-6.2,3.6c-1.4-2.4-4.1-3.9-7.3-3.9
			c-5.6,0-9.2,3.7-9.2,9.4c0,5.6,3.6,9.4,9.2,9.4c3.2,0,6-1.4,7.3-3.9l6.2,3.6c-2.7,4.5-7.8,7.3-13.5,7.3
			C475.2,474.8,468.3,467.6,468.3,458.3z"/>
		<path fill="#3C3C3B" d="M499.9,458.3c0-9.3,7.4-16.4,16.4-16.4c9.1,0,16.4,7.1,16.4,16.4s-7.4,16.4-16.4,16.4
			C507.3,474.8,499.9,467.6,499.9,458.3z M525.5,458.3c0-5.6-4.1-9.4-9.2-9.4c-5.1,0-9.2,3.7-9.2,9.4c0,5.6,4.1,9.4,9.2,9.4
			C521.5,467.7,525.5,464,525.5,458.3z"/>
	</g>
	<g>
		<path fill="#F08300" d="M522.2,162.4c-27-27-63-41.9-101.2-41.9c-38.2,0-74.2,14.9-101.2,41.9c-27,27-41.9,63-41.9,101.2
			c0,64,42.6,120.2,103.9,137.6l0.6-2.3l7.4-27.8l0.6-2.3c-46.6-13.5-79-56.4-79-105.2c0-60.4,49.2-109.6,109.6-109.6
			s109.6,49.2,109.6,109.6c0,49.1-32.6,92-79.6,105.4l0.6,2.3l0.6,2.4l6,23.2l0.6,2.2l0.6,2.3c61.7-17.2,104.7-73.5,104.7-137.8
			C564.1,225.4,549.2,189.5,522.2,162.4z"/>
		<rect x="402.3" y="370.9" fill="#F08300" width="36.4" height="35.3"/>
		<path fill="#F08300" d="M477.3,256.3c0-32.4-24.5-55.9-58.4-55.9c-33.7,0-58.1,23.6-58.1,56.1v2.4h33.3v-2.4
			c0-12.5,7.7-25.9,24.7-25.9c14.5,0,25,10.8,25,25.6c0,6.2-2.5,12.2-8.2,19.8l-21.8,29.4c-7.3,9.7-10,17.6-10,29.1v12.2h33.3v-10.8
			c0-4.3,2-10.1,4.6-13.7l21.5-30.2C470.6,282.3,477.3,271.1,477.3,256.3z"/>
	</g>
</g>
</svg>
