<?xml version="1.0" encoding="utf-8"?>
<!-- Generator: Adobe Illustrator 18.0.0, SVG Export Plug-In . SVG Version: 6.00 Build 0)  -->
<!DOCTYPE svg PUBLIC "-//W3C//DTD SVG 1.1//EN" "http://www.w3.org/Graphics/SVG/1.1/DTD/svg11.dtd">
<svg version="1.1" id="Warstwa_1" xmlns="http://www.w3.org/2000/svg" xmlns:xlink="http://www.w3.org/1999/xlink" x="0px" y="0px"
	 viewBox="0 0 841.9 595.3" enable-background="new 0 0 841.9 595.3" xml:space="preserve">
<g>
	<path fill="#F08300" d="M522.2,196.7c-27-27-63-41.9-101.2-41.9c-38.2,0-74.2,14.9-101.2,41.9c-27,27-41.9,63-41.9,101.2
		c0,64,42.6,120.2,103.9,137.6l0.6-2.3l7.4-27.8l0.6-2.3c-46.6-13.5-79-56.4-79-105.2c0-60.4,49.2-109.6,109.6-109.6
		S530.6,237.5,530.6,298c0,49.1-32.6,92-79.6,105.4l0.6,2.3l0.6,2.4l6,23.2l0.6,2.2l0.6,2.3c61.7-17.2,104.7-73.5,104.7-137.8
		C564.1,259.7,549.2,223.8,522.2,196.7z"/>
	<rect x="402.3" y="405.2" fill="#F08300" width="36.4" height="35.3"/>
	<path fill="#F08300" d="M477.3,290.6c0-32.4-24.5-55.9-58.4-55.9c-33.7,0-58.1,23.6-58.1,56.1v2.4h33.3v-2.4
		c0-12.5,7.7-25.9,24.7-25.9c14.5,0,25,10.8,25,25.6c0,6.2-2.5,12.2-8.2,19.8l-21.8,29.4c-7.3,9.7-10,17.6-10,29.1v12.2h33.3v-10.8
		c0-4.3,2-10.1,4.6-13.7l21.5-30.2C470.6,316.6,477.3,305.4,477.3,290.6z"/>
</g>
</svg>
