<?xml version="1.0" encoding="utf-8"?>
<!-- Generator: Adobe Illustrator 18.0.0, SVG Export Plug-In . SVG Version: 6.00 Build 0)  -->
<!DOCTYPE svg PUBLIC "-//W3C//DTD SVG 1.1//EN" "http://www.w3.org/Graphics/SVG/1.1/DTD/svg11.dtd">
<svg version="1.1" id="Warstwa_1" xmlns="http://www.w3.org/2000/svg" xmlns:xlink="http://www.w3.org/1999/xlink" x="0px" y="0px"
	 viewBox="0 0 841.9 595.3" enable-background="new 0 0 841.9 595.3" xml:space="preserve">
<g>
	<g>
		<path fill="#3C3C3B" d="M334,309.5c0,10.2-8.3,16.8-18.5,16.8h-24.1V269h22.4c10,0,18.1,6.5,18.1,16.4c0,4.8-1.9,8.5-5,11.2
			C331.2,299.3,334,303.7,334,309.5z M304.5,281.3v10.2h9.3c2.9,0,5-2.1,5-5.1s-2-5.1-5-5.1H304.5z M320.9,308.5
			c0-3.2-2.1-5.5-5.4-5.5h-11v11h11C318.8,314,320.9,311.7,320.9,308.5z"/>
		<path fill="#3C3C3B" d="M359.9,307.5h-6.2v18.8h-13.1V269h22.9c10.9,0,19.7,8.8,19.7,19.7c0,7-4.3,13.4-10.6,16.6l12.2,21.1h-14.1
			L359.9,307.5z M353.7,296h9.8c3.6,0,6.6-3.2,6.6-7.4s-2.9-7.4-6.6-7.4h-9.8V296z"/>
		<path fill="#3C3C3B" d="M424.5,317.3h-21.3l-2.9,9H386l19.5-57.4h16.7l19.5,57.4h-14.3L424.5,317.3z M420.6,305l-6.7-21.1
			l-6.7,21.1H420.6z"/>
		<path fill="#3C3C3B" d="M491.7,269v57.4h-9.8l-22.1-31.1v31.1h-13.1V269h9.8l22.1,31.1V269H491.7z"/>
		<path fill="#3C3C3B" d="M552.3,297.6c0,16.2-12,28.7-27.9,28.7h-22.9V269h22.9C540.3,269,552.3,281.4,552.3,297.6z M539.7,297.6
			c0-9.8-6.2-16.1-15.2-16.1h-9.8v32.1h9.8C533.5,313.7,539.7,307.5,539.7,297.6z"/>
		<path fill="#3C3C3B" d="M572.8,269v57.4h-13.1V269H572.8z"/>
		<path fill="#3C3C3B" d="M580.2,297.6c0-16.9,12.5-29.8,29.8-29.8c10.4,0,19.6,5.2,24.6,13.3l-11.3,6.6c-2.5-4.4-7.5-7-13.3-7
			c-10.2,0-16.7,6.8-16.7,17c0,10.2,6.6,17,16.7,17c5.8,0,10.8-2.6,13.3-7l11.3,6.6c-4.9,8.1-14.1,13.3-24.6,13.3
			C592.7,327.5,580.2,314.5,580.2,297.6z"/>
		<path fill="#3C3C3B" d="M637.5,297.6c0-16.9,13.4-29.8,29.8-29.8c16.5,0,29.8,12.9,29.8,29.8c0,16.9-13.4,29.8-29.8,29.8
			C650.8,327.5,637.5,314.5,637.5,297.6z M684,297.6c0-10.2-7.4-17-16.7-17c-9.3,0-16.7,6.8-16.7,17c0,10.2,7.4,17,16.7,17
			C676.6,314.7,684,307.9,684,297.6z"/>
	</g>
	<g>
		<path fill="#F08300" d="M254.1,252.5c-12.1-12.1-28.2-18.8-45.3-18.8c-17.1,0-33.2,6.7-45.3,18.8c-12.1,12.1-18.8,28.2-18.8,45.3
			c0,28.6,19.1,53.8,46.5,61.6l0.3-1l3.3-12.4l0.3-1c-20.8-6.1-35.3-25.2-35.3-47.1c0-27,22-49,49-49s49,22,49,49
			c0,22-14.6,41.2-35.6,47.1l0.3,1l0.3,1.1l2.7,10.4l0.3,1l0.3,1c27.6-7.7,46.8-32.9,46.8-61.7C272.9,280.7,266.2,264.6,254.1,252.5
			z"/>
		<rect x="200.5" y="345.8" fill="#F08300" width="16.3" height="15.8"/>
		<path fill="#F08300" d="M234,294.5c0-14.5-11-25-26.1-25c-15.1,0-26,10.6-26,25.1v1.1h14.9v-1.1c0-5.6,3.5-11.6,11.1-11.6
			c6.5,0,11.2,4.8,11.2,11.4c0,2.8-1.1,5.4-3.7,8.9l-9.8,13.1c-3.3,4.3-4.5,7.9-4.5,13v5.5h14.9v-4.8c0-1.9,0.9-4.5,2.1-6.1
			l9.6-13.5C231.1,306.1,234,301.1,234,294.5z"/>
	</g>
</g>
</svg>
