<?xml version="1.0" encoding="utf-8"?>
<!-- Generator: Adobe Illustrator 18.0.0, SVG Export Plug-In . SVG Version: 6.00 Build 0)  -->
<!DOCTYPE svg PUBLIC "-//W3C//DTD SVG 1.1//EN" "http://www.w3.org/Graphics/SVG/1.1/DTD/svg11.dtd">
<svg version="1.1" id="Warstwa_1" xmlns="http://www.w3.org/2000/svg" xmlns:xlink="http://www.w3.org/1999/xlink" x="0px" y="0px"
	 viewBox="0 0 598.6 326.7" enable-background="new 0 0 598.6 326.7" xml:space="preserve">
<g>
	<g>
		<g>
			<g>
				<path fill="#ACACAC" d="M177.5,122.4c-16.1-0.9-29.5,11.7-30,27.4h0v35.2c0,0.7-0.6,1.3-1.3,1.3h-6.2c-2.6,0-4.7,2.1-4.7,4.7
					s2.1,4.7,4.7,4.7h7.6h4.7c2.6,0,4.7-2.1,4.7-4.7v-16.4c0-1.1,1.3-1.7,2.1-1.1c4.7,3.5,10.5,5.5,16.8,5.5
					c16.1,0,29.1-13.5,28.4-29.8C203.5,134.9,191.9,123.2,177.5,122.4z M175.9,169.6c-10.4,0-18.9-8.5-18.9-18.9
					c0-10.4,8.5-18.9,18.9-18.9s18.9,8.5,18.9,18.9C194.8,161.1,186.3,169.6,175.9,169.6z"/>
			</g>
		</g>
		<g>
			<path fill="#ACACAC" d="M143.2,208.4h-16c-2.6,0-4.7,2.1-4.7,4.7c0,2.6,2.1,4.7,4.7,4.7h16c2.6,0,4.7-2.1,4.7-4.7
				C147.9,210.6,145.8,208.4,143.2,208.4z"/>
		</g>
		<g>
			<path fill="#ACACAC" d="M117.5,156.1c-1.8,0-3.5,1.1-4.3,2.8c-3.1,6.3-9.5,10.7-17,10.7c-7.5,0-14-4.4-17-10.7
				c-0.8-1.7-2.5-2.8-4.3-2.8c-3.5,0-5.8,3.7-4.3,6.8c4.6,9.6,14.3,16.2,25.6,16.2c11.3,0,21-6.6,25.6-16.2
				C123.3,159.8,121,156.1,117.5,156.1z"/>
		</g>
		<g>
			<g>
				<path fill="#ACACAC" d="M314.9,148.2c1.6,0,3.3-0.3,5-0.9c0,0.2,0.2,0.4,0.3,0.6c0.2,0.2,0.3,0.3,0.5,0.3h7.9
					c0.3,0,0.5-0.1,0.7-0.4c0.2-0.2,0.3-0.5,0.3-0.7V100c0-0.2-0.1-0.5-0.3-0.7c-0.2-0.2-0.5-0.4-0.7-0.4h-7.9
					c-0.2,0-0.4,0.1-0.6,0.3c-0.2,0.2-0.2,0.5-0.2,0.7v10.3c-1.7-0.6-3.4-0.9-5-0.9c-2,0-3.9,0.4-5.7,1.2c-1.8,0.8-3.4,1.8-4.8,3.2
					c-1.4,1.4-2.4,2.9-3.2,4.8c-0.8,1.8-1.1,3.7-1.1,5.7v9.2c0,2,0.4,3.9,1.1,5.7c0.8,1.8,1.8,3.4,3.2,4.7c1.4,1.4,3,2.4,4.8,3.2
					C311,147.9,312.9,148.2,314.9,148.2z M309.9,123.5c0-1.4,0.5-2.5,1.4-3.4c1-0.9,2.1-1.4,3.6-1.4c1.4,0,2.5,0.5,3.4,1.4
					c0.9,0.9,1.4,2.1,1.4,3.4v10.6c0,1.4-0.5,2.5-1.4,3.4c-0.9,0.9-2.1,1.4-3.4,1.4c-1.4,0-2.6-0.5-3.6-1.4c-1-0.9-1.4-2.1-1.4-3.4
					V123.5z"/>
			</g>
		</g>
		<g>
			<g>
				<path fill="#ACACAC" d="M364.4,139.9c0.8-1.8,1.1-3.7,1.1-5.7v-10.6c0-2-0.4-3.9-1.1-5.7c-0.8-1.8-1.8-3.4-3.2-4.8
					c-1.4-1.4-3-2.4-4.8-3.2c-1.8-0.8-3.7-1.2-5.7-1.2c-2,0-3.8,0.4-5.6,1.2c-1.8,0.8-3.4,1.8-4.7,3.2c-1.4,1.4-2.4,2.9-3.2,4.8
					c-0.8,1.8-1.2,3.7-1.2,5.7v10.6c0,2,0.4,3.9,1.2,5.7c0.8,1.8,1.9,3.3,3.3,4.8c1.4,1.4,2.9,2.4,4.7,3.2c1.8,0.8,3.7,1.2,5.6,1.2
					c2,0,3.9-0.4,5.7-1.2c1.8-0.8,3.4-1.8,4.8-3.2C362.6,143.2,363.7,141.7,364.4,139.9z M355.7,134.9c0,1.4-0.5,2.5-1.4,3.4
					c-1,0.9-2.1,1.4-3.6,1.4c-1.4,0-2.5-0.5-3.4-1.4c-0.9-0.9-1.4-2.1-1.4-3.4v-12c0-1.4,0.5-2.5,1.4-3.4c0.9-0.9,2.1-1.4,3.4-1.4
					c1.4,0,2.6,0.5,3.6,1.4c1,0.9,1.4,2.1,1.4,3.4V134.9z"/>
			</g>
		</g>
		<g>
			<path fill="#ACACAC" d="M421.2,147.2v-23.7c0-2-0.4-3.9-1.1-5.7c-0.8-1.8-1.8-3.4-3.2-4.8c-1.4-1.4-3-2.4-4.8-3.2
				c-1.8-0.8-3.7-1.2-5.7-1.2c-1.8,0-3.6,0.3-5.3,1c-1.7,0.7-3.2,1.6-4.6,2.9c-1.3-1.2-2.8-2.2-4.6-2.9c-1.7-0.7-3.5-1-5.4-1
				c-2,0-3.8,0.4-5.6,1.2c-1.8,0.8-3.4,1.8-4.7,3.2c-1.4,1.4-2.4,2.9-3.2,4.8c-0.8,1.8-1.2,3.7-1.2,5.7v23.7c0,0.3,0.1,0.5,0.3,0.7
				c0.2,0.2,0.5,0.3,0.7,0.3h7.8c0.3,0,0.5-0.1,0.7-0.3c0.2-0.2,0.2-0.5,0.2-0.7v-24.4c0-1.4,0.5-2.5,1.4-3.4c1-0.9,2.1-1.4,3.5-1.4
				c1.4,0,2.6,0.5,3.6,1.4c1,0.9,1.4,2.1,1.4,3.4v24.4c0,0.3,0.1,0.5,0.3,0.7c0.2,0.2,0.5,0.3,0.7,0.3h7.9c0.3,0,0.5-0.1,0.7-0.3
				c0.2-0.2,0.2-0.5,0.2-0.7v-24.4c0-1.4,0.5-2.5,1.4-3.4c1-0.9,2.1-1.4,3.5-1.4c1.4,0,2.6,0.5,3.6,1.4c1,0.9,1.4,2.1,1.4,3.4v24.4
				c0,0.3,0.1,0.5,0.3,0.7c0.2,0.2,0.5,0.3,0.7,0.3h7.7c0.3,0,0.5-0.1,0.7-0.3C421.1,147.7,421.2,147.5,421.2,147.2z"/>
		</g>
		<g>
			<path fill="#ACACAC" d="M429.3,148.2h7.9c0.2,0,0.5-0.1,0.7-0.4c0.2-0.2,0.4-0.5,0.4-0.8v-27.4c0-0.3-0.1-0.5-0.4-0.7
				c-0.2-0.2-0.5-0.3-0.7-0.3h-7.9c-0.2,0-0.5,0.1-0.7,0.3c-0.2,0.2-0.4,0.5-0.4,0.7v27.4c0,0.3,0.1,0.5,0.4,0.8
				C428.9,148.1,429.1,148.2,429.3,148.2z"/>
		</g>
		<g>
			<path fill="#ACACAC" d="M429.3,109h7.9c0.2,0,0.5-0.1,0.7-0.3c0.2-0.2,0.4-0.5,0.4-0.7v-7.8c0-0.3-0.1-0.5-0.4-0.8
				c-0.2-0.2-0.5-0.4-0.7-0.4h-7.9c-0.2,0-0.5,0.1-0.7,0.4c-0.2,0.2-0.4,0.5-0.4,0.8v7.8c0,0.3,0.1,0.5,0.4,0.7
				C428.9,108.9,429.1,109,429.3,109z"/>
		</g>
		<g>
			<path fill="#ACACAC" d="M470.6,113.1c-1.4-1.4-3-2.4-4.8-3.2c-1.8-0.8-3.7-1.2-5.7-1.2s-3.8,0.4-5.6,1.2
				c-1.8,0.8-3.4,1.8-4.7,3.2c-1.4,1.4-2.4,2.9-3.2,4.8c-0.8,1.8-1.2,3.7-1.2,5.7v23.7c0,0.3,0.1,0.5,0.3,0.7
				c0.2,0.2,0.5,0.3,0.7,0.3h7.8c0.3,0,0.5-0.1,0.7-0.3c0.2-0.2,0.2-0.5,0.2-0.7v-24.4c0-1.4,0.5-2.5,1.4-3.4c1-0.9,2.1-1.4,3.5-1.4
				c1.4,0,2.6,0.5,3.6,1.4c1,0.9,1.4,2.1,1.4,3.4v24.4c0,0.3,0.1,0.5,0.3,0.7c0.2,0.2,0.5,0.3,0.7,0.3h7.7c0.3,0,0.5-0.1,0.7-0.3
				c0.2-0.2,0.3-0.5,0.3-0.7v-23.7c0-2-0.4-3.9-1.1-5.7C473,116.1,472,114.5,470.6,113.1z"/>
		</g>
		<g>
			<path fill="#ACACAC" d="M490.9,99H483c-0.2,0-0.5,0.1-0.7,0.4c-0.2,0.2-0.4,0.5-0.4,0.8v7.8c0,0.3,0.1,0.5,0.4,0.7
				c0.2,0.2,0.5,0.3,0.7,0.3h7.9c0.2,0,0.5-0.1,0.7-0.3c0.2-0.2,0.4-0.5,0.4-0.7v-7.8c0-0.3-0.1-0.5-0.4-0.8
				C491.3,99.1,491.1,99,490.9,99z"/>
		</g>
		<g>
			<path fill="#ACACAC" d="M490.9,118.7H483c-0.2,0-0.5,0.1-0.7,0.3c-0.2,0.2-0.4,0.5-0.4,0.7v27.4c0,0.3,0.1,0.5,0.4,0.8
				c0.2,0.2,0.5,0.4,0.7,0.4h7.9c0.2,0,0.5-0.1,0.7-0.4c0.2-0.2,0.4-0.5,0.4-0.8v-27.4c0-0.3-0.1-0.5-0.4-0.7
				C491.3,118.8,491.1,118.7,490.9,118.7z"/>
		</g>
		<g>
			<path fill="#ACACAC" d="M526.7,126.8c1.2-2.6,1.8-5.3,1.8-8.2v-8.2c0-0.6-0.3-0.9-0.9-0.9h-7.9c-0.3,0-0.5,0.1-0.7,0.2
				c-0.2,0.2-0.3,0.4-0.3,0.7v8.5c0,2.7-1,5-2.9,7c-0.9,0.9-1.9,1.6-3.1,2.1c-1.2,0.5-2.5,0.7-3.8,0.7V99.9c0-0.3-0.1-0.5-0.3-0.7
				c-0.2-0.2-0.5-0.2-0.7-0.2h-7.9c-0.6,0-0.9,0.3-0.9,0.9v47.3c0,0.3,0.1,0.5,0.2,0.7c0.2,0.2,0.4,0.3,0.7,0.3h7.9
				c0.2,0,0.5-0.1,0.7-0.4c0.2-0.2,0.4-0.5,0.4-0.7V138c2.6,0,4.9,0.9,6.7,2.6c1.8,1.7,2.8,4,3.1,6.7c0,0.3,0.1,0.5,0.3,0.7
				c0.2,0.2,0.5,0.2,0.7,0.2h7.9c0.3,0,0.5-0.1,0.7-0.3c0.2-0.2,0.2-0.5,0.2-0.7c-0.1-2.7-0.7-5.3-1.9-7.6c-1.2-2.3-2.8-4.4-4.8-6.2
				C523.8,131.6,525.5,129.4,526.7,126.8z"/>
		</g>
		<g>
			<g>
				<path fill="#ACACAC" d="M333.4,182.1c-1.4-1.4-3-2.4-4.8-3.2c-1.8-0.8-3.7-1.2-5.7-1.2c-1.6,0-3.3,0.3-5,0.9
					c0-0.2-0.2-0.4-0.3-0.6c-0.2-0.2-0.3-0.3-0.5-0.3h-7.9c-0.3,0-0.5,0.1-0.7,0.4c-0.2,0.2-0.3,0.5-0.3,0.7v47.9
					c0,0.2,0.1,0.5,0.3,0.7c0.2,0.2,0.5,0.4,0.7,0.4h7.9c0.2,0,0.4-0.1,0.6-0.3c0.2-0.2,0.2-0.5,0.2-0.7v-11.1
					c1.7,0.6,3.4,0.9,5,0.9c2,0,3.9-0.4,5.7-1.2c1.8-0.8,3.4-1.8,4.8-3.2c1.4-1.4,2.4-2.9,3.2-4.8c0.8-1.8,1.1-3.7,1.1-5.7v-9.2
					c0-2-0.4-3.9-1.1-5.7C335.8,185,334.8,183.4,333.4,182.1z M327.8,202.4c0,1.4-0.5,2.5-1.4,3.4c-1,0.9-2.1,1.4-3.6,1.4
					c-1.4,0-2.5-0.5-3.4-1.4c-0.9-0.9-1.4-2.1-1.4-3.4v-10.6c0-1.4,0.5-2.5,1.4-3.4s2.1-1.4,3.4-1.4c1.4,0,2.6,0.5,3.6,1.4
					c1,0.9,1.4,2.1,1.4,3.4V202.4z"/>
			</g>
		</g>
		<g>
			<path fill="#ACACAC" d="M353,186.9h-7.9c-0.2,0-0.5,0.1-0.7,0.3c-0.2,0.2-0.4,0.5-0.4,0.7v27.4c0,0.3,0.1,0.5,0.4,0.8
				c0.2,0.2,0.5,0.4,0.7,0.4h7.9c0.2,0,0.5-0.1,0.7-0.4c0.2-0.2,0.4-0.5,0.4-0.8v-27.4c0-0.3-0.1-0.5-0.4-0.7
				C353.5,187,353.2,186.9,353,186.9z"/>
		</g>
		<g>
			<path fill="#ACACAC" d="M353,167.2h-7.9c-0.2,0-0.5,0.1-0.7,0.4c-0.2,0.2-0.4,0.5-0.4,0.8v7.8c0,0.3,0.1,0.5,0.4,0.7
				c0.2,0.2,0.5,0.3,0.7,0.3h7.9c0.2,0,0.5-0.1,0.7-0.3c0.2-0.2,0.4-0.5,0.4-0.7v-7.8c0-0.3-0.1-0.5-0.4-0.8
				C353.5,167.3,353.2,167.2,353,167.2z"/>
		</g>
		<g>
			<g>
				<path fill="#ACACAC" d="M413.3,208.1c-1.2-0.1-2-0.6-2.3-1.4c-0.3-0.8-0.4-2.1-0.4-3.8v-0.5v-10.6c0-2-0.4-3.9-1.1-5.7
					c-0.8-1.8-1.8-3.4-3.2-4.8c-1.4-1.4-3-2.4-4.8-3.2c-1.8-0.8-3.7-1.1-5.7-1.1s-3.8,0.4-5.6,1.1c-1.8,0.8-3.4,1.8-4.7,3.2
					c-1.4,1.4-2.4,2.9-3.2,4.8c-0.8,1.8-1.2,3.7-1.2,5.7v10.6c0,2,0.4,3.9,1.2,5.7c0.8,1.8,1.9,3.3,3.3,4.8c1.4,1.4,2.9,2.4,4.7,3.2
					c1.8,0.8,3.7,1.2,5.6,1.2c3.2,0,6.1-1,8.9-3c1.1,0.8,2.3,1.4,3.6,1.7c1.3,0.4,2.9,0.5,4.8,0.5c0.3,0,0.6-0.1,0.8-0.3
					c0.2-0.2,0.3-0.5,0.3-0.8v-6.1c0-0.3-0.1-0.5-0.3-0.7C413.8,208.3,413.6,208.2,413.3,208.1z M400.8,203.1c0,1.4-0.5,2.5-1.4,3.4
					c-1,0.9-2.1,1.4-3.6,1.4c-1.4,0-2.5-0.5-3.4-1.4c-0.9-0.9-1.4-2.1-1.4-3.4v-12c0-1.4,0.5-2.5,1.4-3.4c0.9-0.9,2.1-1.3,3.4-1.3
					c1.4,0,2.6,0.4,3.6,1.3c1,0.9,1.4,2,1.4,3.4V203.1z"/>
			</g>
		</g>
		<g>
			<path fill="#ACACAC" d="M439.6,177.6h-8.7v-9.4c0-0.3-0.1-0.5-0.4-0.8c-0.2-0.2-0.5-0.4-0.7-0.4h-7.9c-0.2,0-0.5,0.1-0.7,0.4
				c-0.2,0.2-0.4,0.5-0.4,0.8v9.4v9.3v28.5c0,0.3,0.1,0.5,0.4,0.8c0.2,0.2,0.5,0.4,0.7,0.4h7.9c0.2,0,0.5-0.1,0.7-0.4
				c0.2-0.2,0.4-0.5,0.4-0.8v-27.2v-1.3h8.7c0.3,0,0.5-0.1,0.7-0.4c0.2-0.2,0.3-0.5,0.3-0.7v-7.2c0-0.3-0.1-0.5-0.3-0.7
				C440.1,177.7,439.9,177.6,439.6,177.6z"/>
		</g>
		<g>
			<path fill="#ACACAC" d="M375.9,178.6c-0.1-0.3-0.3-0.4-0.6-0.5c-0.3-0.1-0.5-0.1-0.8,0l-3.6,1.6v-11.5c0-0.3-0.1-0.5-0.2-0.7
				c-0.2-0.2-0.4-0.3-0.6-0.3h-7.9c-0.3,0-0.5,0.1-0.7,0.4c-0.2,0.2-0.3,0.5-0.3,0.7v34.9v2.4c0,1.9,0.1,3.5,0.4,4.8
				c0.3,1.2,0.9,2.3,1.8,3.2c1.2,1.2,2.5,2,4,2.4c1.5,0.4,3.5,0.6,6.1,0.6c0.3,0,0.6-0.1,0.8-0.3s0.3-0.5,0.3-0.8v-6.1
				c0-0.3-0.1-0.5-0.3-0.7c-0.2-0.2-0.4-0.3-0.7-0.3c-0.9,0-1.6-0.3-2-0.8c-0.4-0.5-0.6-1.3-0.6-2.4v-15l7.5-3.4
				c0.3-0.1,0.4-0.3,0.5-0.6c0.1-0.3,0.1-0.6,0-0.8L375.9,178.6z"/>
		</g>
	</g>
</g>
</svg>
